<svg width="415" height="307" viewBox="0 0 415 307" fill="none" xmlns="http://www.w3.org/2000/svg">
<path d="M414.864 269.787H0V269.993H414.864V269.787Z" fill="#E6E6E6"/>
<path d="M103.567 282.254H76.0861V282.46H103.567V282.254Z" fill="#E6E6E6"/>
<path d="M67.3904 282.254H51.468V282.46H67.3904V282.254Z" fill="#E6E6E6"/>
<path d="M174.698 285.287H158.776V285.493H174.698V285.287Z" fill="#E6E6E6"/>
<path d="M257.722 289.885H221.886V290.091H257.722V289.885Z" fill="#E6E6E6"/>
<path d="M214.501 289.885H209.249V290.091H214.501V289.885Z" fill="#E6E6E6"/>
<path d="M376.157 285.287H298.428V285.493H376.157V285.287Z" fill="#E6E6E6"/>
<path d="M196.646 233.035H36.4338C35.1787 233.033 33.9758 232.536 33.0891 231.654C32.2024 230.772 31.7043 229.577 31.7043 228.33V4.664C31.7153 3.42468 32.2181 2.23969 33.1036 1.36642C33.9892 0.493147 35.1859 0.00212302 36.4338 0H196.646C197.902 0 199.107 0.495725 199.996 1.37812C200.884 2.26052 201.384 3.4573 201.384 4.7052V228.33C201.384 229.578 200.884 230.775 199.996 231.657C199.107 232.54 197.902 233.035 196.646 233.035ZM36.4338 0.164806C35.2337 0.166989 34.0835 0.641972 33.2357 1.4855C32.3879 2.32902 31.9118 3.47217 31.9118 4.664V228.33C31.9118 229.522 32.3879 230.665 33.2357 231.509C34.0835 232.352 35.2337 232.827 36.4338 232.829H196.646C197.847 232.827 198.998 232.352 199.847 231.509C200.696 230.666 201.174 229.523 201.176 228.33V4.664C201.174 3.47141 200.696 2.32829 199.847 1.485C198.998 0.641704 197.847 0.166985 196.646 0.164806H36.4338Z" fill="#E6E6E6"/>
<path d="M376.123 233.035H215.903C214.647 233.033 213.443 232.537 212.555 231.655C211.667 230.773 211.167 229.577 211.165 228.33V4.664C211.178 3.42393 211.683 2.23895 212.57 1.3659C213.457 0.492859 214.654 0.00209986 215.903 0H376.123C377.37 0.00428865 378.564 0.49627 379.448 1.36931C380.332 2.24235 380.834 3.42611 380.845 4.664V228.33C380.845 229.575 380.348 230.769 379.463 231.651C378.578 232.533 377.377 233.031 376.123 233.035ZM215.903 0.164806C214.702 0.166985 213.551 0.641704 212.702 1.485C211.853 2.32829 211.375 3.47141 211.373 4.664V228.33C211.375 229.523 211.853 230.666 212.702 231.509C213.551 232.352 214.702 232.827 215.903 232.829H376.123C377.324 232.827 378.475 232.352 379.324 231.509C380.173 230.666 380.652 229.523 380.654 228.33V4.664C380.652 3.47141 380.173 2.32829 379.324 1.485C378.475 0.641704 377.324 0.166985 376.123 0.164806H215.903Z" fill="#E6E6E6"/>
<path d="M221.869 199.398H203.623V271.278H221.869V199.398Z" fill="#E0E0E0"/>
<path d="M218.401 271.278H221.87V261.489H214.767L218.401 271.278Z" fill="#FAFAFA"/>
<path d="M141.916 199.398H123.67V271.278H141.916V199.398Z" fill="#E0E0E0"/>
<path d="M221.869 199.398H138.896V265.271H221.869V199.398Z" fill="#FAFAFA"/>
<path d="M218.857 202.637V220.065H141.883V202.637H218.832H218.857ZM219.156 202.315H141.585V220.378H219.181V202.315H219.156Z" fill="#E0E0E0"/>
<path d="M142.356 271.278H138.896V261.489H145.99L142.356 271.278Z" fill="#FAFAFA"/>
<path d="M178.549 211.347C178.549 211.707 178.657 212.059 178.858 212.358C179.06 212.658 179.346 212.891 179.681 213.029C180.016 213.167 180.385 213.203 180.741 213.133C181.096 213.062 181.423 212.889 181.679 212.634C181.936 212.38 182.111 212.055 182.181 211.702C182.252 211.349 182.216 210.982 182.077 210.65C181.938 210.317 181.703 210.032 181.402 209.832C181.1 209.632 180.745 209.525 180.383 209.525C179.896 209.525 179.43 209.717 179.086 210.059C178.742 210.4 178.549 210.864 178.549 211.347Z" fill="#E6E6E6"/>
<path d="M218.857 223.617V241.045H141.883V223.617H218.832H218.857ZM219.156 223.304H141.585V241.366H219.181V223.312L219.156 223.304Z" fill="#E0E0E0"/>
<path d="M178.549 232.376C178.549 232.736 178.657 233.089 178.858 233.388C179.06 233.688 179.346 233.921 179.681 234.059C180.016 234.197 180.385 234.233 180.741 234.162C181.096 234.092 181.423 233.919 181.679 233.664C181.936 233.409 182.111 233.085 182.181 232.732C182.252 232.378 182.216 232.012 182.077 231.679C181.938 231.347 181.703 231.062 181.402 230.862C181.1 230.662 180.745 230.555 180.383 230.555C179.896 230.555 179.43 230.747 179.086 231.089C178.742 231.43 178.549 231.893 178.549 232.376Z" fill="#E6E6E6"/>
<path d="M218.857 244.605V262.041H141.883V244.605H218.832H218.857ZM219.156 244.283H141.585V262.354H219.181V244.283H219.156Z" fill="#E0E0E0"/>
<path d="M178.549 253.323C178.551 253.683 178.66 254.034 178.862 254.332C179.065 254.631 179.352 254.863 179.687 255C180.022 255.136 180.39 255.171 180.746 255.1C181.101 255.029 181.427 254.855 181.682 254.6C181.938 254.345 182.112 254.02 182.182 253.667C182.252 253.314 182.215 252.948 182.076 252.616C181.937 252.284 181.702 252 181.401 251.8C181.099 251.6 180.745 251.494 180.383 251.494C180.141 251.494 179.902 251.541 179.679 251.633C179.456 251.725 179.254 251.86 179.083 252.03C178.913 252.2 178.778 252.402 178.686 252.624C178.595 252.845 178.548 253.083 178.549 253.323Z" fill="#E6E6E6"/>
<path d="M130.773 157.653H112.527V271.287H130.773V157.653Z" fill="#E0E0E0"/>
<path d="M127.304 271.278H130.773V261.489H123.678L127.304 271.278Z" fill="#FAFAFA"/>
<path d="M62.5866 157.653H44.3409V271.287H62.5866V157.653Z" fill="#E0E0E0"/>
<path d="M130.773 157.653H59.5572V265.28H130.773V157.653Z" fill="#FAFAFA"/>
<path d="M127.703 160.685V185.052H62.6275V160.685H127.703ZM128.085 160.314H62.2292V185.406H128.068V160.323L128.085 160.314Z" fill="#E0E0E0"/>
<path d="M127.704 188.027V252.656H96.7053V188.027H127.704ZM128.086 187.648H96.3319V253.035H128.086V187.648Z" fill="#E0E0E0"/>
<path d="M93.6261 188.027V252.656H62.6275V188.027H93.6261ZM93.9994 187.648H62.2292V253.035H93.9828V187.648H93.9994Z" fill="#E0E0E0"/>
<path d="M63.0255 271.278H59.5572V261.489H66.6597L63.0255 271.278Z" fill="#FAFAFA"/>
<path d="M93.3276 172.881C93.326 173.243 93.4326 173.598 93.634 173.9C93.8354 174.202 94.1225 174.437 94.4589 174.577C94.7953 174.717 95.166 174.754 95.5238 174.685C95.8817 174.615 96.2107 174.441 96.4691 174.186C96.7275 173.93 96.9038 173.604 96.9756 173.249C97.0473 172.894 97.0113 172.526 96.8721 172.191C96.733 171.857 96.4969 171.57 96.1938 171.369C95.8907 171.168 95.5342 171.06 95.1696 171.06C94.6825 171.06 94.2152 171.252 93.87 171.593C93.5248 171.934 93.3298 172.397 93.3276 172.881Z" fill="#E6E6E6"/>
<path d="M99.8991 218.804C99.8991 219.167 100.007 219.521 100.21 219.822C100.413 220.123 100.701 220.357 101.038 220.495C101.375 220.634 101.746 220.669 102.103 220.598C102.461 220.527 102.789 220.352 103.046 220.095C103.304 219.838 103.479 219.512 103.549 219.156C103.619 218.801 103.581 218.433 103.44 218.099C103.3 217.765 103.062 217.479 102.758 217.279C102.454 217.079 102.097 216.973 101.733 216.975C101.491 216.975 101.252 217.022 101.029 217.115C100.806 217.207 100.604 217.341 100.433 217.511C100.263 217.681 100.128 217.883 100.036 218.105C99.9446 218.327 99.898 218.565 99.8991 218.804Z" fill="#E6E6E6"/>
<path d="M86.7645 218.804C86.7662 219.164 86.8751 219.516 87.0776 219.814C87.2801 220.112 87.567 220.344 87.9022 220.481C88.2375 220.618 88.6059 220.652 88.961 220.581C89.3162 220.51 89.6421 220.336 89.8978 220.081C90.1534 219.826 90.3272 219.501 90.3973 219.148C90.4674 218.795 90.4306 218.43 90.2916 218.097C90.1525 217.765 89.9175 217.481 89.6161 217.281C89.3148 217.082 88.9606 216.975 88.5982 216.975C88.3567 216.975 88.1176 217.022 87.8946 217.115C87.6716 217.207 87.4691 217.341 87.2987 217.511C87.1283 217.681 86.9934 217.883 86.9017 218.105C86.8101 218.327 86.7635 218.565 86.7645 218.804Z" fill="#E6E6E6"/>
<path d="M84.69 125.969H76.9985C77.7073 129.675 78.1537 133.425 78.3343 137.193C78.3343 141.313 72.4765 157.653 80.8235 157.653C89.1706 157.653 83.3127 141.354 83.3127 137.193C83.5071 133.424 83.9673 129.674 84.69 125.969Z" fill="#E0E0E0"/>
<path d="M55.4261 142.681V147.625C55.4349 150.275 56.499 152.815 58.3861 154.689C60.2732 156.563 62.8302 157.62 65.499 157.629H70.4774C73.1462 157.62 75.7032 156.563 77.5903 154.689C79.4775 152.815 80.5415 150.275 80.5503 147.625V142.681H55.4261Z" fill="#F5F5F5"/>
<path d="M162.353 188.917C162.353 194.685 168.849 199.398 176.79 199.398H183.959C191.899 199.398 198.396 194.685 198.396 188.917H162.353Z" fill="#E0E0E0"/>
<path d="M352.31 180.462C347.963 183.989 341.955 190.441 336.463 199.522C332.795 205.571 330.588 211.883 329.617 220.271C329.617 210.795 329.675 200.618 329.709 191.01C330.812 188.538 333.335 182.836 335.143 178.336C341.175 163.314 343.441 159.614 348.859 146.661C356.102 129.356 363.52 108.871 361.396 110.511C357.065 113.848 340.47 144.708 338.678 149.125C333.793 160.912 330.773 173.378 329.725 186.082C329.725 177.018 329.792 168.778 329.825 162.383C329.941 141.527 330.298 134.795 330.472 132.718C331.144 131.663 331.932 130.436 332.397 129.776C336.297 124.173 337.798 119.41 341.466 111.054C346.677 99.2297 351.157 78.2252 349.846 79.28C344.387 83.6968 340.089 93.1731 334.43 105.262C328.771 117.35 330.389 124.297 329.269 134.613C329.037 136.641 328.854 144.288 328.721 154.876C327.261 143.587 324.506 136.154 319.486 129.397C313.313 121.083 307.339 115.471 302.958 112.538C298.577 109.604 310.525 130.024 316.234 138.907C321.32 146.85 326.008 153.846 328.68 160.743C328.539 175.106 328.472 193.284 328.472 210.185C327.161 202.489 325.021 194.191 322.166 187.772C318.731 180.059 313.454 168.226 309.248 164.213C308.244 163.248 313.645 186.264 317.113 192.378C320.582 198.492 323.129 204.269 325.311 207.738C325.817 208.562 327.51 211.668 328.472 213.465C328.472 234.123 328.588 252.351 328.771 258.556H329.667C329.609 256.957 329.592 246.442 329.617 232.533C331.783 224.985 336.728 216.365 340.81 208.504C345.258 199.992 356.658 176.96 352.31 180.462Z" fill="#E0E0E0"/>
<path d="M342.213 271.279H316.209L314.243 245.964H344.179L342.213 271.279Z" fill="#F0F0F0"/>
<path d="M346.112 248.914H312.3L311.338 240.369H347.083L346.112 248.914Z" fill="#F5F5F5"/>
<path d="M103.102 16.8926H56.596V67.6115H103.102V16.8926Z" fill="#E0E0E0"/>
<path d="M108.138 16.8926H60.0972V67.6115H108.138V16.8926Z" fill="#F5F5F5"/>
<path d="M104.114 63.615V20.8892L64.1212 20.8892V63.615H104.114Z" fill="white"/>
<path d="M94.4147 53.2486V31.2388H73.8125V53.2486H94.4147Z" fill="#F5F5F5"/>
<path d="M340.229 22.8008H297.025V69.9187H340.229V22.8008Z" fill="#E0E0E0"/>
<path d="M344.909 22.8008H300.286V69.9187H344.909V22.8008Z" fill="#F5F5F5"/>
<path d="M341.175 66.2023V26.5171L304.029 26.5171V66.2023H341.175Z" fill="white"/>
<path d="M322.598 57.871C329 57.871 334.189 52.7171 334.189 46.3593C334.189 40.0016 329 34.8477 322.598 34.8477C316.196 34.8477 311.007 40.0016 311.007 46.3593C311.007 52.7171 316.196 57.871 322.598 57.871Z" fill="#F5F5F5"/>
<path d="M151.416 47.1348H116.916V84.7599H151.416V47.1348Z" fill="#E0E0E0"/>
<path d="M155.151 47.1348H119.514V84.7599H155.151V47.1348Z" fill="#F5F5F5"/>
<path d="M152.164 81.7932V50.1011H122.501V81.7932H152.164Z" fill="white"/>
<path d="M137.336 57.9292L129.222 71.8882H145.451L137.336 57.9292Z" fill="#F5F5F5"/>
<path d="M207.432 307C296.281 307 368.308 302.824 368.308 297.672C368.308 292.52 296.281 288.344 207.432 288.344C118.582 288.344 46.5558 292.52 46.5558 297.672C46.5558 302.824 118.582 307 207.432 307Z" fill="#F5F5F5"/>
<path d="M289.781 89.3493L281.55 86.0532C281.55 86.0532 270.689 105.723 267.578 106.72C263.346 108.071 254.584 111.829 249.39 112.488C248.685 113.312 247.531 115.875 247.639 116.806C254.617 119.121 269.951 116.048 273.236 113.625C280.712 108.129 289.781 89.3493 289.781 89.3493Z" fill="#C78E6E"/>
<path d="M292.312 84.8748C293.847 90.5029 285.534 101.825 285.534 101.825L274.639 95.7602C274.639 95.7602 276.68 91.1044 279.17 86.3663C283.161 78.711 290.562 78.4556 292.312 84.8748Z" fill="#FDBF21"/>
<path opacity="0.2" d="M292.312 84.8748C293.847 90.5029 285.534 101.825 285.534 101.825L274.639 95.7602C274.639 95.7602 276.68 91.1044 279.17 86.3663C283.161 78.711 290.562 78.4556 292.312 84.8748Z" fill="black"/>
<path opacity="0.2" d="M278.962 98.1833L283.252 100.573L284.007 87.4956C281.51 89.3991 279.751 95.1343 278.962 98.1833Z" fill="black"/>
<path d="M285.143 80.6397C285.143 80.6397 276.663 99.3781 281.609 134.267H315.022C315.553 129.175 313.794 104.322 320.158 80.3265C316.492 79.6151 312.784 79.1444 309.056 78.9175C304.328 78.6454 299.588 78.6454 294.859 78.9175C291.582 79.248 288.334 79.8237 285.143 80.6397Z" fill="#FDBF21"/>
<path opacity="0.2" d="M285.143 80.6397C285.143 80.6397 276.663 99.3781 281.609 134.267H315.022C315.553 129.175 313.794 104.322 320.158 80.3265C316.492 79.6151 312.784 79.1444 309.056 78.9175C304.328 78.6454 299.588 78.6454 294.859 78.9175C291.582 79.248 288.334 79.8237 285.143 80.6397Z" fill="black"/>
<g style="mix-blend-mode:multiply">
<path d="M277.394 298.414C277.344 299.304 290.014 300.021 305.688 300.021C321.361 300.021 334.123 299.304 334.172 298.414C334.222 297.524 321.561 296.815 305.879 296.815C290.197 296.815 277.452 297.532 277.394 298.414Z" fill="#E8ECF1"/>
</g>
<path d="M299.698 275.03L293.772 277.309L298.877 290.405L304.803 288.127L299.698 275.03Z" fill="#C78E6E"/>
<path d="M326.124 292.077H319.876L317.586 277.714H323.834L326.124 292.077Z" fill="#C78E6E"/>
<path d="M319.444 291.36H326.464C326.586 291.36 326.703 291.404 326.796 291.482C326.889 291.561 326.95 291.669 326.97 291.789L327.874 297.301C327.893 297.44 327.882 297.58 327.842 297.714C327.801 297.848 327.732 297.971 327.639 298.076C327.546 298.181 327.432 298.264 327.303 298.321C327.175 298.378 327.036 298.407 326.895 298.406C324.448 298.364 323.269 298.216 320.183 298.216C318.283 298.216 314.375 298.414 311.736 298.414C309.098 298.414 308.923 295.843 310.01 295.604C314.889 294.557 316.781 293.132 318.407 291.747C318.694 291.497 319.063 291.36 319.444 291.36Z" fill="black"/>
<path d="M298.701 289.234L305.339 287.306C305.457 287.273 305.584 287.281 305.697 287.329C305.81 287.377 305.903 287.462 305.961 287.569L308.45 292.514C308.508 292.639 308.538 292.775 308.537 292.913C308.536 293.051 308.505 293.188 308.446 293.312C308.386 293.437 308.3 293.547 308.194 293.636C308.087 293.724 307.962 293.788 307.828 293.824C305.413 294.483 303.796 294.887 300.775 295.76C298.693 296.362 296.569 297.342 294.511 297.993C293.084 298.447 289.732 298.463 287.998 298.463C285.434 298.463 284.861 295.777 285.965 295.653C288.744 295.348 289.118 295.488 290.653 294.722C293.164 293.632 295.441 292.07 297.357 290.124C297.718 289.715 298.182 289.408 298.701 289.234Z" fill="black"/>
<path d="M250.436 112.455L243.566 109.596L240.737 117.16C243.553 117.586 246.417 117.586 249.233 117.16L250.436 112.455Z" fill="#C78E6E"/>
<path d="M238.454 109.398L238.272 114.425L240.736 117.144L243.565 109.58L238.454 109.398Z" fill="#C78E6E"/>
<path d="M300.511 276.142L294.566 278.422L297.199 285.194L303.143 282.915L300.511 276.142Z" fill="#CF6F64"/>
<path d="M323.834 277.714H317.586L318.772 285.122H325.02L323.834 277.714Z" fill="#CF6F64"/>
<path opacity="0.2" d="M280.547 124.832C280.672 126.324 280.813 127.848 280.995 129.414L305.837 121.404C309.717 120.263 313.088 117.841 315.396 114.54C315.495 112.34 315.62 110.025 315.811 107.61C315.894 106.44 315.993 105.237 316.101 104.017C316.209 102.798 316.358 101.446 316.516 100.145L280.547 124.832Z" fill="black"/>
<path d="M288.662 97.8043L287.833 97.7054C288.322 93.5852 291.417 90.3386 294.678 90.421V91.245C291.824 91.1873 289.102 94.1126 288.662 97.8043Z" fill="white"/>
<path d="M293.085 105.41H292.944V104.586C295.798 104.693 298.478 101.735 298.918 98.0513L299.748 98.1501C299.308 102.18 296.313 105.41 293.085 105.41Z" fill="white"/>
<path d="M308.592 63.0381C307.422 67.5785 306.045 75.8929 309.057 78.9171C309.057 78.9171 306.949 83.5234 298.461 83.5234C290.703 83.5234 294.86 78.9171 294.86 78.9171C300.021 77.714 300.112 73.9729 299.432 70.4296L308.592 63.0381Z" fill="#C78E6E"/>
<path d="M304.858 66.0547L299.44 70.4303C299.608 71.2445 299.705 72.0716 299.73 72.9024C301.315 74.468 304.493 70.5044 304.816 68.4773C304.981 67.6793 304.995 66.8578 304.858 66.0547Z" fill="#CF6F64"/>
<path d="M290.122 62.9804C290.499 63.6294 291.007 64.1941 291.614 64.6393C292.22 65.0845 292.913 65.4006 293.649 65.5679C295.64 66.0046 296.636 64.1835 296.088 62.3542C295.598 60.7061 293.964 58.4895 291.939 58.8685C291.506 58.9572 291.1 59.1479 290.755 59.4244C290.411 59.701 290.139 60.0555 289.961 60.4581C289.783 60.8608 289.705 61.2999 289.733 61.7388C289.761 62.1776 289.894 62.6034 290.122 62.9804Z" fill="#CF6F64"/>
<path d="M293.416 48.4533C290.313 49.8624 289.218 62.1075 293.117 63.9203C297.017 65.7332 299.291 45.7752 293.416 48.4533Z" fill="black"/>
<path d="M309.538 56.2071C308.792 62.3544 308.709 65.9719 305.39 69.1197C304.361 70.1643 303.062 70.9063 301.636 71.2638C300.209 71.6213 298.711 71.5804 297.307 71.1456C295.903 70.7108 294.646 69.899 293.677 68.7999C292.708 67.7008 292.064 66.3571 291.815 64.9171C290.811 59.3961 292.197 50.2741 298.403 47.8268C299.707 47.2555 301.141 47.0411 302.557 47.2057C303.973 47.3703 305.318 47.9079 306.454 48.7628C307.59 49.6177 308.475 50.7587 309.017 52.0677C309.559 53.3767 309.739 54.8059 309.538 56.2071Z" fill="#C78E6E"/>
<path d="M299.341 51.6337C303.937 50.4718 307.314 49.6808 306.103 53.4795C304.502 58.5555 302.577 63.4668 305.157 63.6892C306.734 63.8293 313.703 60.8958 312.815 57.921C312.044 55.3336 315.305 54.6249 315.885 53.3147C318.034 48.5683 311.886 49.1946 312.981 46.3105C314.077 43.4264 308.003 38.7789 304.684 41.0944C299.283 44.8355 290.015 44.7778 294.885 38.6223C298.378 34.2302 292.147 35.1284 292.147 35.1284C292.147 35.1284 295.914 37.3451 289.575 40.773C282.871 44.4317 289.019 54.2624 299.341 51.6337Z" fill="black"/>
<path d="M311.977 62.9804C311.07 64.2845 309.706 65.2067 308.152 65.5679C306.103 66.0046 305.314 64.1835 306.086 62.3542C306.775 60.7061 308.667 58.4895 310.625 58.8685C312.583 59.2476 313.031 61.3653 311.977 62.9804Z" fill="#C78E6E"/>
<path d="M281.609 134.267C281.609 134.267 276 184.121 275.56 203.04C275.112 222.718 294.569 284.117 294.569 284.117L304.526 279.997C304.526 279.997 292.91 223.897 294.569 204.573C296.328 183.503 303.596 134.3 303.596 134.3L281.609 134.267Z" fill="#FDBF21"/>
<path opacity="0.2" d="M295.548 147.954C291.076 157.167 294.088 175.386 296.511 186.181C297.432 178.559 298.527 170.285 299.564 162.63C299.465 150.863 298.544 141.774 295.548 147.954Z" fill="black"/>
<path d="M304.086 276.734C304.136 276.734 305.264 279.882 305.264 279.882L293.781 284.678L291.972 281.332L304.086 276.734Z" fill="#FDBF21"/>
<path d="M293.466 134.267C293.466 134.267 297.755 181.682 300.593 199.439C303.713 218.895 315.943 283.688 315.943 283.688H327.385C327.385 283.688 320.531 220.469 319.237 201.203C317.827 180.306 315.022 134.267 315.022 134.267H293.466Z" fill="#FDBF21"/>
<path d="M327.56 280.73C327.609 280.73 327.941 283.903 327.941 283.903H315.363L314.466 280.26L327.56 280.73Z" fill="#FDBF21"/>
<path opacity="0.2" d="M323.179 276.973C323.153 276.973 323.128 276.964 323.108 276.947C323.088 276.931 323.075 276.907 323.071 276.882C323.005 276.305 316.823 219.2 315.662 201.895C314.401 183.124 311.862 141.486 311.837 141.066C311.836 141.052 311.837 141.038 311.842 141.025C311.846 141.012 311.853 141 311.863 140.99C311.872 140.98 311.884 140.972 311.896 140.967C311.909 140.961 311.923 140.958 311.936 140.958C311.964 140.958 311.99 140.969 312.01 140.987C312.03 141.005 312.042 141.03 312.044 141.057C312.044 141.478 314.608 183.083 315.869 201.887C317.031 219.192 323.212 276.256 323.27 276.874C323.273 276.887 323.272 276.901 323.269 276.915C323.265 276.928 323.259 276.941 323.251 276.952C323.242 276.962 323.231 276.971 323.219 276.978C323.207 276.984 323.193 276.988 323.179 276.989V276.973Z" fill="black"/>
<path d="M300.046 57.9211C300.046 58.4237 299.731 58.8275 299.399 58.8275C299.067 58.8275 298.827 58.4237 298.86 57.9211C298.893 57.4184 299.175 57.0146 299.507 57.0146C299.839 57.0146 300.079 57.4267 300.046 57.9211Z" fill="black"/>
<path d="M294.354 57.9211C294.354 58.4237 294.03 58.8275 293.707 58.8275C293.383 58.8275 293.134 58.4237 293.159 57.9211C293.184 57.4184 293.483 57.0146 293.815 57.0146C294.147 57.0146 294.387 57.4267 294.354 57.9211Z" fill="black"/>
<path d="M296.146 58.1768C295.454 59.7117 294.561 61.1495 293.491 62.4535C294.321 63.2775 295.872 62.8984 295.872 62.8984L296.146 58.1768Z" fill="#DF5753"/>
<path d="M296.296 64.9997C296.277 64.9997 296.258 64.9959 296.24 64.9883C296.222 64.9808 296.206 64.9697 296.193 64.9558C296.18 64.9419 296.17 64.9255 296.163 64.9075C296.157 64.8896 296.154 64.8705 296.155 64.8514C296.157 64.8113 296.175 64.7736 296.204 64.746C296.233 64.7184 296.272 64.703 296.312 64.7031C296.947 64.7074 297.575 64.5705 298.149 64.3025C298.723 64.0344 299.23 63.6419 299.631 63.1539C299.66 63.129 299.697 63.1152 299.735 63.1152C299.773 63.1152 299.81 63.129 299.839 63.1539C299.866 63.1815 299.881 63.2185 299.881 63.2569C299.881 63.2953 299.866 63.3322 299.839 63.3599C299.409 63.8786 298.868 64.2951 298.255 64.5788C297.642 64.8626 296.972 65.0064 296.296 64.9997Z" fill="black"/>
<path d="M301.058 56.405C301.018 56.4253 300.974 56.4358 300.929 56.4358C300.885 56.4358 300.84 56.4253 300.801 56.405C300.49 56.2057 300.137 56.0818 299.769 56.0431C299.402 56.0045 299.03 56.0522 298.685 56.1825C298.651 56.1992 298.614 56.2091 298.577 56.2115C298.539 56.2139 298.502 56.2088 298.466 56.1965C298.43 56.1843 298.398 56.165 298.37 56.14C298.342 56.1149 298.319 56.0846 298.303 56.0507C298.272 55.9773 298.272 55.895 298.301 55.8211C298.33 55.7472 298.388 55.6877 298.461 55.6551C298.895 55.4792 299.365 55.4098 299.831 55.4528C300.298 55.4959 300.747 55.6501 301.141 55.9023C301.173 55.9238 301.2 55.9514 301.221 55.9834C301.242 56.0154 301.256 56.0512 301.263 56.0887C301.27 56.1263 301.269 56.1649 301.261 56.2022C301.253 56.2395 301.238 56.2748 301.215 56.3061C301.174 56.3534 301.119 56.3877 301.058 56.405Z" fill="black"/>
<path d="M292.155 54.757C292.111 54.7463 292.07 54.7235 292.039 54.691C292.011 54.6642 291.989 54.6321 291.974 54.5968C291.959 54.5614 291.952 54.5234 291.952 54.485C291.952 54.4467 291.959 54.4087 291.974 54.3733C291.989 54.3379 292.011 54.3059 292.039 54.279C292.357 53.9248 292.753 53.6483 293.196 53.471C293.639 53.2938 294.118 53.2206 294.594 53.2572C294.632 53.2631 294.669 53.2766 294.702 53.2971C294.734 53.3175 294.762 53.3444 294.784 53.3761C294.806 53.4078 294.821 53.4436 294.828 53.4812C294.836 53.5189 294.835 53.5576 294.827 53.5951C294.809 53.6714 294.764 53.7386 294.699 53.7841C294.635 53.8296 294.557 53.8503 294.478 53.8423C294.101 53.8187 293.724 53.8806 293.374 54.0234C293.025 54.1662 292.713 54.386 292.462 54.6663C292.424 54.708 292.375 54.7386 292.321 54.7545C292.267 54.7705 292.21 54.7714 292.155 54.757Z" fill="black"/>
<path d="M323.369 88.4349L314.74 86.1523C314.74 86.1523 306.277 106.844 303.282 108.187C299.216 110.033 288.919 116.427 284.538 119.451C284.298 120.481 284.488 123.209 285.036 123.959C292.504 122.607 306.8 117.144 309.787 114.367C316.599 108.03 323.369 88.4349 323.369 88.4349Z" fill="#C78E6E"/>
<path d="M317.345 292.448C316.924 292.481 316.504 292.367 316.158 292.127C316.051 292.031 315.971 291.909 315.926 291.773C315.881 291.637 315.873 291.492 315.901 291.352C315.906 291.264 315.935 291.18 315.985 291.107C316.035 291.035 316.103 290.977 316.183 290.94C316.88 290.586 318.83 291.813 319.054 291.953C319.079 291.969 319.098 291.991 319.108 292.018C319.119 292.045 319.12 292.074 319.112 292.102C319.105 292.131 319.091 292.157 319.07 292.179C319.05 292.2 319.024 292.216 318.996 292.225C318.455 292.357 317.902 292.432 317.345 292.448ZM316.515 291.162C316.452 291.149 316.387 291.149 316.324 291.162C316.292 291.178 316.266 291.203 316.248 291.234C316.231 291.265 316.222 291.3 316.225 291.335C316.203 291.431 316.206 291.531 316.235 291.625C316.264 291.719 316.318 291.804 316.391 291.871C316.714 292.159 317.527 292.192 318.598 291.986C317.96 291.57 317.243 291.289 316.49 291.162H316.515Z" fill="#FDBF21"/>
<path d="M318.956 292.225C318.934 292.232 318.911 292.232 318.889 292.225C318.267 291.879 317.097 290.52 317.271 289.827C317.297 289.718 317.36 289.62 317.448 289.55C317.537 289.479 317.647 289.441 317.761 289.44C317.872 289.425 317.985 289.435 318.093 289.467C318.2 289.5 318.299 289.555 318.383 289.63C319.072 290.215 319.113 292.011 319.113 292.102C319.117 292.129 319.112 292.157 319.098 292.18C319.085 292.204 319.064 292.223 319.038 292.234C319.011 292.239 318.982 292.236 318.956 292.225ZM317.844 289.712H317.786C317.595 289.712 317.57 289.819 317.562 289.86C317.462 290.264 318.2 291.294 318.814 291.78C318.812 291.084 318.594 290.406 318.192 289.836C318.096 289.752 317.971 289.708 317.844 289.712Z" fill="#FDBF21"/>
<path d="M295.316 291.418C294.808 291.594 294.256 291.594 293.748 291.418C293.633 291.356 293.535 291.266 293.464 291.156C293.393 291.047 293.351 290.921 293.341 290.792C293.331 290.71 293.341 290.627 293.372 290.551C293.402 290.475 293.452 290.407 293.516 290.355C294.179 289.762 296.893 290.355 297.2 290.47C297.229 290.478 297.255 290.495 297.273 290.519C297.291 290.543 297.3 290.572 297.299 290.602C297.3 290.633 297.292 290.664 297.276 290.69C297.26 290.716 297.236 290.737 297.208 290.75C296.597 291.024 295.964 291.248 295.316 291.418ZM293.964 290.437C293.869 290.456 293.78 290.499 293.706 290.561C293.68 290.58 293.66 290.607 293.648 290.638C293.636 290.668 293.633 290.702 293.64 290.734C293.645 290.82 293.673 290.904 293.719 290.978C293.765 291.051 293.829 291.112 293.906 291.154C294.345 291.385 295.366 291.204 296.685 290.651C295.797 290.429 294.876 290.356 293.964 290.437Z" fill="#FDBF21"/>
<path d="M297.183 290.75H297.117C296.287 290.602 294.628 289.654 294.578 288.946C294.578 288.781 294.653 288.55 295.051 288.418C295.185 288.371 295.328 288.351 295.471 288.359C295.613 288.368 295.753 288.405 295.881 288.468C296.777 288.904 297.25 290.487 297.275 290.561C297.28 290.586 297.28 290.612 297.272 290.636C297.265 290.661 297.252 290.683 297.233 290.701C297.221 290.721 297.204 290.738 297.183 290.75ZM295.217 288.666H295.134C294.877 288.756 294.877 288.863 294.877 288.896C294.877 289.325 296.08 290.108 296.918 290.371C296.725 289.709 296.316 289.13 295.756 288.723C295.59 288.639 295.398 288.619 295.217 288.666Z" fill="#FDBF21"/>
<path d="M285.243 118.965L276.589 122.92L275.585 125.392L278.779 127.526C278.779 127.526 284.753 126.884 286.454 123.069L285.243 118.965Z" fill="#C78E6E"/>
<path d="M285.608 124.099C285.414 122.448 284.865 120.857 283.998 119.435L285.367 118.414C286.397 120.052 287.054 121.894 287.292 123.811L285.608 124.099Z" fill="black"/>
<path d="M287.085 120.136C287.268 120.422 287.358 120.756 287.343 121.095C287.327 121.433 287.207 121.758 286.999 122.027C286.791 122.295 286.505 122.493 286.179 122.593C285.853 122.694 285.505 122.693 285.18 122.59C284.855 122.487 284.57 122.287 284.364 122.017C284.157 121.748 284.04 121.421 284.027 121.083C284.014 120.744 284.106 120.41 284.291 120.126C284.476 119.841 284.745 119.62 285.061 119.493C285.415 119.314 285.827 119.28 286.206 119.401C286.585 119.521 286.901 119.785 287.085 120.136Z" fill="black"/>
<path d="M270.74 126.118L271.893 127.272L279.659 123.976L276.589 122.921L270.74 126.118Z" fill="#C78E6E"/>
<path opacity="0.2" d="M304.086 276.734C304.136 276.734 305.264 279.882 305.264 279.882L293.781 284.678L291.972 281.332L304.086 276.734Z" fill="black"/>
<path opacity="0.2" d="M327.56 280.73C327.609 280.73 327.941 283.903 327.941 283.903H315.363L314.466 280.26L327.56 280.73Z" fill="black"/>
<path d="M325.618 86.0618C327.9 93.371 318.981 103.366 318.981 103.366L306.659 98.3728C308.12 94.1482 309.804 90.0031 311.704 85.9547C315.487 77.8545 323.312 78.6868 325.618 86.0618Z" fill="#FDBF21"/>
<path opacity="0.2" d="M325.618 86.0618C327.9 93.371 318.981 103.366 318.981 103.366L306.659 98.3728C308.12 94.1482 309.804 90.0031 311.704 85.9547C315.487 77.8545 323.312 78.6868 325.618 86.0618Z" fill="black"/>
<path d="M203.182 12.8301H197.88V13.6788H203.182V12.8301Z" fill="#FDBF21"/>
<path d="M271.816 46.423L271.174 60.5654L272.028 60.6036L272.67 46.4612L271.816 46.423Z" fill="#FDBF21"/>
<path d="M270.167 16.6367H172.259L163.149 219.117H261.057L270.167 16.6367Z" fill="#FDBF21"/>
<path opacity="0.56" d="M267.246 19.4224H169.338L160.227 221.903H258.135L267.246 19.4224Z" fill="#FAFAFA"/>
<path opacity="0.07" d="M264.325 22.1992H166.418L157.299 224.679H255.207L264.325 22.1992Z" fill="#FDBF21"/>
<path d="M253.183 110.51H169.612L168.915 126.002H252.486L253.183 110.51Z" fill="white"/>
<path d="M215.57 99.2046H170.117L169.81 106.135H215.263L215.57 99.2046Z" fill="#FDBF21"/>
<path d="M251.299 152.322H167.729L167.032 167.814H250.602L251.299 152.322Z" fill="white"/>
<path opacity="0.47" d="M235.973 188.736H179.776L178.938 207.301H235.135L235.973 188.736Z" fill="#FDBF21"/>
<path d="M232.215 210.185H176.018C175.993 210.191 175.967 210.191 175.943 210.185C175.935 210.161 175.935 210.135 175.943 210.111L176.773 191.537C176.773 191.525 176.775 191.512 176.78 191.501C176.785 191.489 176.793 191.479 176.802 191.47C176.812 191.462 176.823 191.455 176.835 191.451C176.847 191.447 176.859 191.446 176.872 191.447H233.07C233.08 191.442 233.091 191.439 233.103 191.439C233.114 191.439 233.126 191.442 233.136 191.447C233.142 191.457 233.145 191.468 233.145 191.48C233.145 191.491 233.142 191.503 233.136 191.513L232.323 210.127C232.313 210.147 232.297 210.163 232.278 210.173C232.259 210.183 232.237 210.187 232.215 210.185ZM176.117 209.987H232.115L232.945 191.612H176.947L176.117 209.987Z" fill="white"/>
<path d="M205.754 141.016H168.234L167.927 147.954H205.439L205.754 141.016Z" fill="#FDBF21"/>
<path d="M234.903 60.467C234.689 64.9755 233.075 69.3077 230.282 72.8686C228.215 75.5583 225.554 77.7419 222.505 79.2518C219.456 80.7616 216.099 81.5576 212.692 81.5786C209.938 81.5994 207.21 81.0602 204.674 79.9942C202.139 78.9282 199.85 77.3579 197.949 75.3801C196.047 73.4023 194.574 71.0588 193.619 68.494C192.664 65.9292 192.248 63.1975 192.397 60.467C192.688 54.801 195.149 49.4597 199.274 45.5354C203.4 41.6112 208.879 39.4005 214.592 39.3554C217.347 39.3298 220.078 39.8657 222.617 40.9299C225.156 41.9941 227.448 43.564 229.351 45.5426C231.255 47.5211 232.73 49.8664 233.685 52.4333C234.64 55.0003 235.054 57.7345 234.903 60.467Z" fill="white"/>
<path d="M236.902 43.7721C236.848 44.9709 236.419 46.1231 235.674 47.0682C235.123 47.7826 234.415 48.3626 233.604 48.7639C232.793 49.1651 231.901 49.3772 230.995 49.3837C230.117 49.389 229.251 49.1807 228.473 48.7771C227.695 48.3735 227.028 47.7867 226.531 47.0682C225.872 46.0972 225.546 44.9414 225.601 43.7721C225.682 42.2677 226.337 40.8504 227.433 39.8092C228.529 38.768 229.984 38.1813 231.501 38.1687C232.232 38.162 232.958 38.3043 233.632 38.5867C234.306 38.869 234.915 39.2855 235.421 39.8105C235.927 40.3354 236.32 40.9578 236.575 41.6391C236.829 42.3204 236.941 43.0463 236.902 43.7721Z" fill="#FDBF21"/>
<path d="M178.614 118.256C178.575 118.92 178.283 119.544 177.798 120.003C177.313 120.462 176.67 120.721 176.001 120.728C175.677 120.732 175.357 120.67 175.058 120.546C174.76 120.421 174.491 120.238 174.267 120.006C174.043 119.774 173.869 119.499 173.756 119.198C173.643 118.897 173.594 118.577 173.611 118.256C173.647 117.59 173.938 116.964 174.424 116.504C174.909 116.045 175.554 115.787 176.225 115.784C176.548 115.781 176.868 115.844 177.166 115.969C177.463 116.093 177.732 116.277 177.956 116.508C178.18 116.74 178.354 117.014 178.467 117.315C178.58 117.615 178.63 117.935 178.614 118.256Z" fill="black"/>
<path d="M189.799 118.256C189.761 118.921 189.47 119.546 188.985 120.005C188.499 120.464 187.856 120.723 187.186 120.728C186.863 120.731 186.543 120.668 186.246 120.543C185.949 120.418 185.68 120.235 185.457 120.003C185.234 119.772 185.061 119.497 184.949 119.197C184.837 118.896 184.787 118.576 184.804 118.256C184.84 117.592 185.13 116.967 185.614 116.507C186.098 116.048 186.74 115.789 187.41 115.784C187.733 115.78 188.054 115.842 188.352 115.966C188.65 116.09 188.92 116.274 189.144 116.506C189.368 116.737 189.541 117.012 189.654 117.313C189.767 117.614 189.816 117.935 189.799 118.256Z" fill="black"/>
<path d="M200.992 118.256C200.954 118.921 200.663 119.546 200.177 120.005C199.692 120.464 199.049 120.723 198.378 120.728C198.055 120.731 197.735 120.668 197.437 120.543C197.14 120.419 196.871 120.235 196.647 120.003C196.423 119.772 196.25 119.498 196.136 119.197C196.023 118.897 195.973 118.576 195.989 118.256C196.027 117.591 196.318 116.966 196.803 116.507C197.289 116.048 197.932 115.789 198.602 115.784C198.926 115.78 199.247 115.842 199.545 115.966C199.843 116.09 200.112 116.274 200.336 116.506C200.56 116.737 200.734 117.012 200.847 117.313C200.96 117.614 201.009 117.935 200.992 118.256Z" fill="black"/>
<path d="M176.73 160.067C176.69 160.731 176.399 161.356 175.913 161.814C175.428 162.273 174.786 162.532 174.117 162.539C173.794 162.542 173.473 162.479 173.176 162.355C172.878 162.23 172.609 162.046 172.385 161.815C172.162 161.583 171.988 161.309 171.875 161.009C171.761 160.708 171.711 160.388 171.727 160.067C171.765 159.403 172.056 158.777 172.542 158.318C173.027 157.859 173.67 157.601 174.341 157.595C174.664 157.593 174.984 157.656 175.282 157.78C175.579 157.905 175.848 158.088 176.072 158.32C176.296 158.551 176.469 158.826 176.583 159.126C176.696 159.427 176.746 159.747 176.73 160.067Z" fill="black"/>
<path d="M187.916 160.067C187.878 160.731 187.588 161.355 187.104 161.814C186.62 162.273 185.979 162.532 185.31 162.539C184.987 162.543 184.666 162.481 184.368 162.357C184.07 162.233 183.8 162.049 183.576 161.818C183.352 161.586 183.178 161.311 183.066 161.01C182.953 160.709 182.904 160.388 182.921 160.067C182.959 159.403 183.25 158.777 183.735 158.318C184.221 157.859 184.864 157.601 185.534 157.595C185.857 157.593 186.177 157.656 186.474 157.78C186.771 157.905 187.04 158.089 187.263 158.32C187.486 158.552 187.659 158.826 187.771 159.127C187.883 159.427 187.933 159.747 187.916 160.067Z" fill="black"/>
<path d="M199.133 160.067C199.095 160.732 198.804 161.358 198.318 161.817C197.833 162.276 197.19 162.534 196.519 162.54C196.197 162.541 195.877 162.477 195.58 162.352C195.283 162.227 195.014 162.044 194.791 161.812C194.567 161.581 194.394 161.307 194.28 161.007C194.166 160.707 194.115 160.388 194.13 160.067C194.17 159.403 194.462 158.779 194.947 158.32C195.432 157.862 196.074 157.603 196.743 157.595C197.067 157.592 197.388 157.654 197.686 157.778C197.984 157.902 198.254 158.086 198.478 158.317C198.701 158.549 198.875 158.824 198.988 159.125C199.101 159.426 199.15 159.747 199.133 160.067Z" fill="black"/>
<path d="M210.301 160.067C210.261 160.731 209.969 161.356 209.484 161.814C208.999 162.273 208.357 162.532 207.687 162.539C207.365 162.541 207.045 162.477 206.748 162.352C206.451 162.227 206.182 162.044 205.959 161.812C205.735 161.581 205.562 161.307 205.448 161.007C205.334 160.707 205.283 160.388 205.298 160.067C205.338 159.403 205.63 158.779 206.115 158.32C206.6 157.862 207.242 157.602 207.912 157.595C208.235 157.593 208.555 157.656 208.852 157.78C209.15 157.905 209.419 158.088 209.643 158.32C209.867 158.551 210.04 158.826 210.154 159.126C210.267 159.427 210.317 159.747 210.301 160.067Z" fill="black"/>
<path d="M221.536 160.067C221.496 160.731 221.204 161.356 220.719 161.814C220.234 162.273 219.592 162.532 218.922 162.539C218.599 162.543 218.278 162.481 217.98 162.357C217.682 162.233 217.412 162.049 217.188 161.818C216.964 161.586 216.791 161.311 216.678 161.01C216.565 160.709 216.516 160.388 216.533 160.067C216.571 159.403 216.862 158.777 217.347 158.318C217.833 157.859 218.476 157.601 219.146 157.595C219.469 157.593 219.79 157.656 220.087 157.78C220.385 157.905 220.654 158.088 220.878 158.32C221.101 158.551 221.275 158.826 221.388 159.126C221.502 159.427 221.552 159.747 221.536 160.067Z" fill="black"/>
<path d="M219.838 59.3677C223.311 55.9949 223.495 50.5887 220.25 47.2927C217.004 43.9966 211.558 44.0588 208.085 47.4316C204.612 50.8044 204.428 56.2106 207.673 59.5066C210.919 62.8027 216.365 62.7405 219.838 59.3677Z" fill="#FDBF21"/>
<path d="M230.281 72.8686C228.214 75.5583 225.553 77.7419 222.504 79.2518C219.455 80.7616 216.098 81.5576 212.691 81.5786C209.387 81.6064 206.127 80.8265 203.198 79.3075C200.269 77.7885 197.762 75.5772 195.897 72.8686C199.93 68.8803 206.31 66.2764 213.379 66.2764C220.449 66.2764 226.605 68.8803 230.281 72.8686Z" fill="#FDBF21"/>
<path opacity="0.1" d="M219.838 59.3677C223.311 55.9949 223.495 50.5887 220.25 47.2927C217.004 43.9966 211.558 44.0588 208.085 47.4316C204.612 50.8044 204.428 56.2106 207.673 59.5066C210.919 62.8027 216.365 62.7405 219.838 59.3677Z" fill="white"/>
<path opacity="0.1" d="M230.281 72.8686C228.214 75.5583 225.553 77.7419 222.504 79.2518C219.455 80.7616 216.098 81.5576 212.691 81.5786C209.387 81.6064 206.127 80.8265 203.198 79.3075C200.269 77.7885 197.762 75.5772 195.897 72.8686C199.93 68.8803 206.31 66.2764 213.379 66.2764C220.449 66.2764 226.605 68.8803 230.281 72.8686Z" fill="white"/>
<path d="M108.204 129.735C107.415 131.449 106.586 133.336 105.864 135.165C105.142 136.995 104.403 138.882 103.765 140.761C102.46 144.463 101.467 148.267 100.794 152.132L100.612 153.344C100.594 153.551 100.614 153.761 100.67 153.962C100.865 154.644 101.174 155.29 101.582 155.873C102.648 157.382 103.884 158.764 105.266 159.993C106.724 161.34 108.253 162.608 109.846 163.792C111.44 165.012 113.116 166.198 114.767 167.319L113.215 170.211C109.272 168.505 105.53 166.375 102.055 163.858C100.201 162.515 98.5284 160.942 97.0769 159.178C96.2166 158.127 95.5457 156.937 95.0939 155.659C94.8312 154.861 94.6968 154.027 94.6956 153.187C94.6956 152.989 94.6956 152.701 94.6956 152.561V152.157L94.7786 151.333C95.2543 147.04 96.1632 142.805 97.4918 138.692C98.139 136.665 98.8277 134.646 99.6159 132.677C100.404 130.707 101.217 128.779 102.221 126.777L108.204 129.735Z" fill="#C78E6E"/>
<path d="M113.598 166.808L119.464 163.858L117.946 170.252C117.946 170.252 113.922 171.373 112.055 169.428L113.598 166.808Z" fill="#C78E6E"/>
<path d="M124.833 164.904L123.273 170.195L117.946 170.252L119.464 163.858L124.833 164.904Z" fill="#C78E6E"/>
<path d="M133.113 98.8833C133.427 100.025 133.863 101.13 134.416 102.179C134.254 102.361 134.046 102.496 133.814 102.57C133.582 102.644 133.334 102.654 133.096 102.6L133.113 98.8833Z" fill="#DF5753"/>
<path d="M132.939 98.9329C133.282 98.9329 133.561 98.5086 133.561 97.9852C133.561 97.4619 133.282 97.0376 132.939 97.0376C132.595 97.0376 132.316 97.4619 132.316 97.9852C132.316 98.5086 132.595 98.9329 132.939 98.9329Z" fill="black"/>
<path d="M132.755 97.0706L134.017 96.7163C134.017 96.7163 133.403 97.6887 132.755 97.0706Z" fill="black"/>
<path d="M116.908 104.932C117.663 108.763 118.418 115.792 115.713 118.355C115.713 118.355 116.775 122.244 123.952 122.244C131.843 122.244 127.719 118.355 127.719 118.355C123.413 117.333 123.521 114.161 124.276 111.178L116.908 104.932Z" fill="#C78E6E"/>
<path d="M114.809 96.1974C115.207 102.6 115.24 105.319 118.493 108.607C123.397 113.551 131.229 111.673 132.764 105.311C134.15 99.543 133.27 90.0502 126.956 87.5039C125.57 86.9369 124.061 86.7304 122.573 86.9039C121.084 87.0774 119.664 87.6253 118.448 88.4957C117.232 89.366 116.259 90.5301 115.623 91.8778C114.986 93.2255 114.706 94.7123 114.809 96.1974Z" fill="#C78E6E"/>
<path d="M115.448 88.9945C112.212 90.1647 107.898 89.2912 109.591 99.2042C111.383 109.702 108.628 113.155 108.628 113.155C108.628 113.155 120.9 115.751 133.429 112.998C133.429 112.998 129.604 106.357 130.674 101.462C132.043 95.2819 130.964 92.9993 130.964 92.9993C130.964 92.9993 119.995 87.3465 115.448 88.9945Z" fill="black"/>
<path d="M129.138 99.5345C129.141 100.752 129.492 101.943 130.15 102.971C131.03 104.306 132.067 103.795 132.324 102.377C132.556 101.133 132.382 98.9329 131.262 98.0759C130.142 97.219 129.155 98.0595 129.138 99.5345Z" fill="#C78E6E"/>
<path d="M112.635 90.0743C111.706 87.4786 116.137 83.4821 125.513 85.1302C134.889 86.7782 135.295 94.5323 135.295 94.5323L133.404 92.291L133.487 94.6477L123.853 96.4853L112.635 90.0743Z" fill="black"/>
<path d="M113.432 118.792C113.377 118.415 113.471 118.033 113.696 117.725C113.921 117.417 114.258 117.208 114.635 117.144C117.556 116.666 124.194 115.693 127.529 116.155C130.018 116.501 130.665 117.935 130.773 119.113C130.79 119.319 130.762 119.527 130.692 119.722C130.621 119.916 130.51 120.094 130.364 120.242C130.219 120.391 130.043 120.506 129.849 120.582C129.655 120.657 129.446 120.69 129.238 120.679L114.818 120.036C114.478 120.019 114.154 119.886 113.902 119.659C113.649 119.432 113.483 119.126 113.432 118.792Z" fill="#FDBF21"/>
<path opacity="0.6" d="M113.432 118.792C113.377 118.415 113.471 118.033 113.696 117.725C113.921 117.417 114.258 117.208 114.635 117.144C117.556 116.666 124.194 115.693 127.529 116.155C130.018 116.501 130.665 117.935 130.773 119.113C130.79 119.319 130.762 119.527 130.692 119.722C130.621 119.916 130.51 120.094 130.364 120.242C130.219 120.391 130.043 120.506 129.849 120.582C129.655 120.657 129.446 120.69 129.238 120.679L114.818 120.036C114.478 120.019 114.154 119.886 113.902 119.659C113.649 119.432 113.483 119.126 113.432 118.792Z" fill="black"/>
<path d="M121.77 262.749L127.122 266.441L136.074 254.386L130.723 250.702L121.77 262.749Z" fill="#C78E6E"/>
<path d="M109.292 262.511L114.942 265.708L122.866 252.96L117.216 249.763L109.292 262.511Z" fill="#C78E6E"/>
<path d="M136.066 254.386L131.453 260.599L126.101 256.915L130.715 250.702L136.066 254.386Z" fill="#CF6F64"/>
<path d="M117.206 249.763L122.865 252.968L118.783 259.536L113.124 256.33L117.206 249.763Z" fill="#CF6F64"/>
<path d="M126.283 159.037C126.283 159.037 147.176 185.184 143.251 210.193C140.09 230.39 121.753 257.739 121.753 257.739L113.132 253.487C119.209 241.395 124.394 228.881 128.648 216.043C129.96 212.058 130.343 207.828 129.768 203.674C129.193 199.52 127.675 195.55 125.329 192.064C114.742 176.713 97.7823 185.851 109.191 159.037H126.283Z" fill="#FDBF21"/>
<path opacity="0.6" d="M126.283 159.037C126.283 159.037 147.176 185.184 143.251 210.193C140.09 230.39 121.753 257.739 121.753 257.739L113.132 253.487C119.209 241.395 124.394 228.881 128.648 216.043C129.96 212.058 130.343 207.828 129.768 203.674C129.193 199.52 127.675 195.55 125.329 192.064C114.742 176.713 97.7823 185.851 109.191 159.037H126.283Z" fill="black"/>
<path opacity="0.4" d="M136.531 175.831L133.495 172.832C133.495 173.071 139.377 209.138 141.028 219.274C142.003 216.313 142.749 213.283 143.26 210.209C145.202 197.94 141.145 185.406 136.531 175.831Z" fill="black"/>
<path d="M135.611 159.037C135.611 159.037 160.768 191.899 161.482 211.602C162.071 228.082 134.101 260.014 134.101 260.014L125.969 254.789C125.969 254.789 142.34 232.112 146.464 213.588C144.871 195.228 111.184 159.037 111.184 159.037H135.611Z" fill="#FDBF21"/>
<path opacity="0.6" d="M135.611 159.037C135.611 159.037 160.768 191.899 161.482 211.602C162.071 228.082 134.101 260.014 134.101 260.014L125.969 254.789C125.969 254.789 142.34 232.112 146.464 213.588C144.871 195.228 111.184 159.037 111.184 159.037H135.611Z" fill="black"/>
<path d="M104.487 119.822C101.798 120.456 99.2178 130.163 99.2178 130.163L109.73 137.135C109.73 137.135 113.232 129.455 112.004 126.093C110.734 122.591 107.864 119.023 104.487 119.822Z" fill="#FDBF21"/>
<path opacity="0.2" d="M106.545 126.076L105.814 134.539L109.722 137.143C110.802 134.73 111.6 132.203 112.104 129.611L106.545 126.076Z" fill="black"/>
<path d="M138.722 120.011C138.722 120.011 141.825 121.091 135.611 159.029H109.176C109.624 148.317 109.632 141.725 104.488 119.822C108.189 119.064 111.941 118.574 115.714 118.355C119.711 118.07 123.723 118.07 127.72 118.355C132.881 118.825 138.722 120.011 138.722 120.011Z" fill="#FDBF21"/>
<path d="M141.41 126.076C142.007 127.724 142.638 129.496 143.301 131.202C143.965 132.907 144.596 134.663 145.268 136.393L147.301 141.568L147.815 142.862L148.081 143.504L148.205 143.826C148.205 143.883 148.205 143.883 148.205 143.875C148.054 143.663 147.855 143.488 147.624 143.364C147.296 143.172 146.926 143.062 146.546 143.043C146.23 143.033 145.915 143.092 145.625 143.216C145.243 143.389 145.243 143.463 145.251 143.455C145.32 143.4 145.382 143.336 145.434 143.265C145.893 142.667 146.291 142.023 146.62 141.345C147.01 140.587 147.384 139.78 147.757 138.964C148.487 137.316 149.159 135.61 149.831 133.888C150.504 132.166 151.142 130.427 151.765 128.672L153.656 123.415L156.851 124.239C156.22 127.996 155.407 131.655 154.428 135.379C153.955 137.233 153.399 139.071 152.769 140.925C152.453 141.856 152.105 142.779 151.707 143.727C151.291 144.755 150.78 145.743 150.18 146.677C149.959 146.991 149.715 147.289 149.45 147.567C149.026 148.021 148.512 148.383 147.94 148.63C147.432 148.846 146.882 148.948 146.33 148.926C145.712 148.904 145.109 148.725 144.579 148.407C143.954 148.02 143.435 147.485 143.069 146.85C142.945 146.636 142.837 146.421 142.762 146.265L142.604 145.952L142.289 145.309L141.659 144.032C140.829 142.318 139.999 140.587 139.277 138.849C138.555 137.11 137.792 135.346 137.079 133.575C136.365 131.803 135.726 130.031 135.12 128.12L141.41 126.076Z" fill="#C78E6E"/>
<path d="M138.721 120.012C141.899 120.761 145.475 130.089 145.475 130.089L136.025 138.074C136.025 138.074 129.91 127.906 131.146 124.552C132.432 121.058 134.573 119.031 138.721 120.012Z" fill="#FDBF21"/>
<path d="M155.158 120.465L158.477 117.712L160.784 121.28L159.083 124.255C159.083 124.255 156.378 126.727 153.988 125.466C153.609 124.62 153.518 123.673 153.729 122.771C153.94 121.868 154.442 121.059 155.158 120.465Z" fill="#C78E6E"/>
<path d="M164.468 117.721L164.219 118.619L158.967 119.492L158.452 117.712L164.468 117.721Z" fill="#C78E6E"/>
<path d="M134.748 260.434L125.272 254.353L126.973 251.419L137.618 257.921L134.748 260.434Z" fill="#FDBF21"/>
<path d="M118.65 265.279C117.819 265.179 117.02 264.897 116.31 264.455C116.281 264.445 116.255 264.426 116.237 264.401C116.219 264.376 116.21 264.346 116.21 264.315C116.21 264.285 116.219 264.254 116.237 264.229C116.255 264.204 116.281 264.185 116.31 264.175C116.567 264.093 118.799 263.409 119.446 263.936C119.519 263.996 119.574 264.075 119.607 264.163C119.639 264.251 119.646 264.347 119.629 264.439C119.617 264.587 119.568 264.73 119.485 264.854C119.402 264.978 119.289 265.079 119.156 265.148C119.001 265.232 118.827 265.277 118.65 265.279ZM116.783 264.373C117.82 264.9 118.65 265.09 119.048 264.892C119.135 264.844 119.208 264.775 119.26 264.692C119.312 264.608 119.342 264.513 119.347 264.414C119.347 264.282 119.347 264.225 119.272 264.192C118.924 263.912 117.679 264.126 116.766 264.373H116.783Z" fill="black"/>
<path d="M116.369 264.513C116.325 264.512 116.283 264.494 116.253 264.463C116.24 264.441 116.234 264.415 116.234 264.389C116.234 264.363 116.24 264.338 116.253 264.315C116.253 264.241 116.792 262.453 117.638 262.049C117.746 262 117.864 261.975 117.983 261.975C118.101 261.975 118.219 262 118.327 262.049C118.443 262.085 118.544 262.16 118.614 262.26C118.683 262.36 118.716 262.48 118.709 262.601C118.651 263.343 117.132 264.364 116.435 264.537L116.369 264.513ZM117.978 262.263C117.898 262.266 117.819 262.285 117.746 262.321C117.232 262.568 116.809 263.532 116.601 264.117C117.331 263.812 118.335 263.005 118.368 262.552C118.368 262.477 118.368 262.387 118.178 262.304C118.116 262.271 118.048 262.249 117.978 262.238V262.263Z" fill="black"/>
<path d="M130.491 268.839C129.553 268.839 128.25 267.644 127.537 266.911C127.518 266.885 127.509 266.855 127.509 266.824C127.509 266.793 127.518 266.763 127.537 266.738C127.553 266.711 127.576 266.689 127.604 266.675C127.632 266.66 127.663 266.654 127.694 266.655C128.026 266.655 130.905 267.084 131.312 267.891C131.355 267.964 131.378 268.046 131.378 268.13C131.378 268.214 131.355 268.297 131.312 268.369C131.251 268.495 131.159 268.603 131.044 268.684C130.93 268.765 130.796 268.815 130.656 268.831L130.491 268.839ZM128.084 267.026C129.13 268.031 130.051 268.592 130.574 268.526C130.665 268.514 130.752 268.48 130.827 268.427C130.903 268.374 130.964 268.303 131.005 268.221C131.024 268.193 131.033 268.16 131.033 268.126C131.033 268.092 131.024 268.06 131.005 268.031C130.789 267.586 129.254 267.207 128.084 267.026Z" fill="black"/>
<path d="M128.175 266.985C127.989 266.99 127.803 266.976 127.62 266.944C127.594 266.94 127.57 266.93 127.549 266.914C127.529 266.898 127.513 266.877 127.503 266.853C127.491 266.829 127.485 266.802 127.485 266.775C127.485 266.748 127.491 266.721 127.503 266.697C127.553 266.639 128.673 265.296 129.735 265.205C130.036 265.182 130.334 265.277 130.565 265.469C130.889 265.749 130.872 265.996 130.789 266.153C130.582 266.713 129.146 266.985 128.175 266.985ZM127.96 266.68C128.889 266.73 130.374 266.425 130.565 266.021C130.565 266.021 130.631 265.889 130.416 265.708C130.33 265.634 130.23 265.578 130.121 265.544C130.013 265.51 129.898 265.498 129.785 265.51C129.07 265.708 128.433 266.12 127.96 266.688V266.68Z" fill="black"/>
<path d="M116.593 263.623L109.557 261.645C109.435 261.609 109.305 261.618 109.19 261.671C109.075 261.724 108.984 261.818 108.934 261.934L106.561 267.232C106.506 267.368 106.48 267.514 106.485 267.66C106.49 267.807 106.526 267.95 106.591 268.082C106.656 268.213 106.748 268.33 106.862 268.423C106.976 268.517 107.108 268.586 107.25 268.625C109.739 269.267 110.934 269.449 114.029 270.33C115.937 270.858 118.659 271.838 121.289 272.58C123.919 273.322 124.799 270.775 123.778 270.232C119.165 267.809 118.8 266.111 117.539 264.299C117.313 263.97 116.978 263.731 116.593 263.623Z" fill="#FDBF21"/>
<path d="M127.728 265.947L121.721 261.826C121.619 261.753 121.493 261.719 121.368 261.731C121.242 261.743 121.126 261.801 121.04 261.892L117.058 266.144C116.96 266.254 116.888 266.383 116.845 266.523C116.802 266.663 116.79 266.81 116.809 266.955C116.827 267.1 116.877 267.24 116.954 267.364C117.032 267.489 117.135 267.595 117.257 267.677C119.372 269.086 120.468 269.655 123.115 271.476C124.774 272.597 127.985 275.085 130.225 276.634C132.466 278.183 134.133 276.057 133.337 275.217C129.769 271.435 128.989 269.061 128.4 266.911C128.298 266.521 128.06 266.179 127.728 265.947Z" fill="#FDBF21"/>
<path d="M122.858 258.283L112.03 252.935L113.15 250.018L124.716 255.655L122.858 258.283Z" fill="#FDBF21"/>
<path d="M108.777 157.488L107.865 159.861C107.773 160.043 107.989 160.232 108.296 160.232H135.743C135.984 160.232 136.183 160.117 136.2 159.969L136.432 157.612C136.432 157.455 136.241 157.315 135.984 157.315H109.209C109.128 157.308 109.047 157.319 108.972 157.35C108.897 157.38 108.83 157.427 108.777 157.488Z" fill="#FDBF21"/>
<path opacity="0.4" d="M108.777 157.488L107.865 159.861C107.773 160.043 107.989 160.232 108.296 160.232H135.743C135.984 160.232 136.183 160.117 136.2 159.969L136.432 157.612C136.432 157.455 136.241 157.315 135.984 157.315H109.209C109.128 157.308 109.047 157.319 108.972 157.35C108.897 157.38 108.83 157.427 108.777 157.488Z" fill="white"/>
<path d="M113.099 160.463H112.377C112.236 160.463 112.129 160.389 112.137 160.298L112.477 157.241C112.477 157.159 112.61 157.084 112.751 157.084H113.473C113.614 157.084 113.722 157.159 113.713 157.241L113.373 160.298C113.365 160.389 113.24 160.463 113.099 160.463Z" fill="#FDBF21"/>
<path d="M130.025 160.463H129.312C129.171 160.463 129.063 160.389 129.071 160.298L129.403 157.241C129.403 157.159 129.544 157.084 129.685 157.084H130.399C130.54 157.084 130.656 157.159 130.639 157.241L130.308 160.298C130.266 160.389 130.175 160.463 130.025 160.463Z" fill="#FDBF21"/>
<g style="mix-blend-mode:multiply">
<path d="M112.469 300.012C124.745 300.012 134.697 299.296 134.697 298.413C134.697 297.53 124.745 296.815 112.469 296.815C100.193 296.815 90.2405 297.53 90.2405 298.413C90.2405 299.296 100.193 300.012 112.469 300.012Z" fill="#F5F5F5"/>
</g>
<path d="M126.01 296.156C122.077 295.018 117.713 293.56 115.074 292.035C114.999 291.986 114.916 291.961 114.842 291.92V274.236H122.799C123.403 274.201 123.97 273.938 124.385 273.5C124.8 273.063 125.031 272.485 125.031 271.884C125.031 271.283 124.8 270.705 124.385 270.267C123.97 269.83 123.403 269.567 122.799 269.531H114.883V188.925H110.104V269.531H102.197C101.874 269.512 101.55 269.559 101.246 269.669C100.942 269.778 100.664 269.949 100.429 270.169C100.193 270.389 100.006 270.655 99.8776 270.95C99.7494 271.245 99.6833 271.563 99.6833 271.884C99.6833 272.205 99.7494 272.523 99.8776 272.818C100.006 273.113 100.193 273.379 100.429 273.599C100.664 273.819 100.942 273.989 101.246 274.099C101.55 274.209 101.874 274.255 102.197 274.236H110.104V291.895C110.029 291.895 109.955 291.961 109.88 292.011C107.2 293.56 102.869 295.018 98.9358 296.131C98.6701 296.211 98.442 296.382 98.2927 296.615C98.1434 296.847 98.0828 297.125 98.1219 297.398C98.1611 297.671 98.2973 297.921 98.5059 298.102C98.7145 298.284 98.9818 298.386 99.2594 298.389H125.686C125.951 298.371 126.202 298.263 126.397 298.083C126.592 297.904 126.719 297.663 126.757 297.402C126.795 297.141 126.741 296.874 126.605 296.648C126.469 296.421 126.259 296.247 126.01 296.156Z" fill="#E0E0E0"/>
<path d="M127.229 180.718H97.7242C95.3505 180.718 93.4262 182.629 93.4262 184.986V193.696C93.4262 196.054 95.3505 197.965 97.7242 197.965H127.229C129.603 197.965 131.527 196.054 131.527 193.696V184.986C131.527 182.629 129.603 180.718 127.229 180.718Z" fill="#FDBF21"/>
<path d="M97.4505 197.973V199.472C97.4505 200.708 98.803 201.714 100.462 201.714H124.525C126.184 201.714 127.536 200.708 127.536 199.472V197.973H97.4505Z" fill="#FDBF21"/>
<path opacity="0.3" d="M97.4505 197.973V199.472C97.4505 200.708 98.803 201.714 100.462 201.714H124.525C126.184 201.714 127.536 200.708 127.536 199.472V197.973H97.4505Z" fill="white"/>
</svg>
